<svg width="68" height="68" viewBox="0 0 68 68" fill="none" xmlns="http://www.w3.org/2000/svg">
<g clip-path="url(#clip0)">
<path d="M50.1692 17.0708C48.4348 17.0708 46.7301 17.3731 45.0898 17.9777C44.5762 18.1656 44.1373 18.5148 43.8389 18.9732C43.5405 19.4315 43.3987 19.9741 43.4347 20.5198C43.4545 20.7924 43.9104 27.2197 46.3337 33.6966C48.7569 40.1834 52.2307 44.7276 52.3794 44.9208C52.7066 45.3472 53.1614 45.6578 53.6775 45.8076C54.1936 45.9574 54.7441 45.9384 55.2486 45.7534C62.9049 42.9485 66.8545 34.4399 64.0546 26.7836C61.9287 20.9758 56.3488 17.0708 50.1692 17.0708Z" fill="#FCC21B"/>
<path d="M31.2896 8.67774C29.2926 8.67774 27.3401 9.07914 25.4917 9.86707C21.8593 11.4132 19.0495 14.2874 17.5728 17.9545C16.101 21.6216 16.1456 25.6355 17.6966 29.2679C18.0931 30.2095 19.0198 30.8041 20.0208 30.8041C20.105 30.8041 20.1843 30.7992 20.2636 30.7942C20.5064 30.7695 26.1954 30.1946 32.588 27.5186C38.9657 24.8526 43.9659 20.7841 44.174 20.6106C44.5973 20.2636 44.8963 19.7883 45.026 19.2564C45.1556 18.7246 45.1087 18.165 44.8925 17.6621C43.7573 14.9947 41.8621 12.7205 39.4432 11.1228C37.0242 9.52517 34.1886 8.67481 31.2896 8.67774Z" fill="#FCC21B"/>
<path d="M40.4368 31.8336C40.3873 31.5908 40.2188 31.3925 40.0007 31.2984L38.1424 30.4906C37.8798 30.3767 37.5775 30.4213 37.3594 30.5947C37.1364 30.7781 37.0373 31.0655 37.0968 31.343C37.0968 31.3529 37.3297 32.567 36.6508 33.5829C36.1602 34.3113 35.2979 34.7871 34.0838 35.0002C30.8528 35.57 30.4911 37.6662 30.2334 39.1925C29.9856 40.6395 29.8122 41.2887 28.3453 41.4275C26.715 41.5811 25.5157 42.1906 24.7774 43.2412C23.593 44.9162 24.1133 47.0619 24.1331 47.1511C24.1877 47.379 24.3512 47.5674 24.5692 47.6615L26.4275 48.4693C26.5267 48.5139 26.6307 48.5337 26.7298 48.5337C26.8447 48.5339 26.9581 48.508 27.0615 48.458C27.1649 48.408 27.2556 48.3351 27.3267 48.2449C27.3978 48.1547 27.4475 48.0495 27.472 47.9373C27.4965 47.8251 27.4952 47.7087 27.4682 47.5971C27.4682 47.5822 27.1015 46.0212 27.8845 44.9211C28.3602 44.2571 29.1878 43.8606 30.3523 43.7516C33.0432 43.4939 33.3603 41.6257 33.5932 40.2629C33.841 38.8258 34.0293 37.691 36.2097 37.3094C37.8451 37.022 39.0443 36.3282 39.7728 35.243C40.8134 33.677 40.4566 31.9079 40.4368 31.8336Z" fill="#ED6C30"/>
<path d="M46.3353 53.4191C45.1955 52.4825 45.4135 51.8531 46.0131 50.5102C46.6524 49.0979 47.5246 47.1553 45.1558 44.8807C44.2738 44.0333 43.8228 43.1562 43.8178 42.284C43.8079 41.0501 44.69 40.168 44.695 40.1581C44.8982 39.9599 44.9725 39.6675 44.8932 39.3949C44.809 39.1224 44.586 38.9192 44.3035 38.8697L42.3114 38.5029C42.0735 38.4583 41.8257 38.5327 41.6473 38.7012C41.5978 38.7557 40.3044 40.0243 40.3093 41.9024C40.3093 43.2057 40.9238 44.4496 42.1132 45.6042C43.7088 47.1355 43.2381 48.186 42.6384 49.5191C42.0735 50.7827 41.2955 52.5073 43.3818 54.2219C44.2886 54.9652 44.7594 55.7531 44.7792 56.5708C44.8189 57.9236 43.6444 59.0139 43.6345 59.0188C43.4165 59.2121 43.3372 59.5144 43.4115 59.7869C43.4908 60.0694 43.7187 60.2775 44.0062 60.3271L45.9983 60.6938C46.0429 60.7037 46.0875 60.7086 46.1321 60.7086C46.3154 60.7086 46.4988 60.6393 46.6425 60.5154C46.7119 60.451 48.3422 58.9643 48.2927 56.9127C48.253 55.6342 47.5989 54.4597 46.3353 53.4191Z" fill="#D7598B"/>
<path d="M35.5 53.1191C36.6001 51.2112 35.9955 49.5164 35.9707 49.442C35.8964 49.2438 35.7428 49.0803 35.5396 49.006L33.7655 48.2924C33.493 48.1833 33.1758 48.2428 32.9627 48.4509C32.7496 48.6541 32.6704 48.9713 32.7695 49.2537C32.7843 49.2983 33.1461 50.3836 32.4127 51.6473C32.0757 52.2221 31.6495 52.4352 31.1044 52.7028C30.485 53.0051 29.7119 53.3817 29.2461 54.3827C28.81 55.3143 28.924 56.2163 29.0181 57.0141C29.1073 57.7426 29.1817 58.3669 28.8843 58.9864C28.5721 59.6504 28.0369 59.9824 27.4175 60.369C26.803 60.7506 26.1092 61.1817 25.6087 61.9795C25.1826 62.6584 25.133 63.4315 25.0835 64.1847C24.9992 65.4087 24.9001 66.1868 23.8347 66.7319C23.572 66.8657 23.4085 67.1432 23.4184 67.4405C23.4333 67.7378 23.6166 68.0005 23.8941 68.1095L25.6682 68.8231C25.7574 68.8627 25.8565 68.8776 25.9507 68.8776C26.0696 68.8776 26.1836 68.8479 26.2926 68.7934C28.1757 67.837 28.2897 66.1967 28.364 64.9974C28.4036 64.4077 28.4383 63.8527 28.6663 63.5009C28.9785 62.9954 29.4542 62.708 29.9944 62.3661C30.7129 61.9151 31.5207 61.4146 32.0261 60.3492C32.5118 59.3283 32.3978 58.3769 32.2888 57.5394C32.2045 56.8605 32.1352 56.2708 32.3879 55.7356C32.6158 55.24 32.938 55.0666 33.5376 54.7742C34.1669 54.467 34.94 54.0953 35.5 53.1191Z" fill="#D7598B"/>
<path d="M13.8342 44.6142C14.6766 44.5844 15.633 44.5448 16.5994 43.8708C17.526 43.2217 17.8927 42.3445 18.2248 41.5616C18.4924 40.9272 18.7203 40.3821 19.206 40.0402C19.7015 39.6933 20.1624 39.7429 20.6778 39.7776C20.8809 39.7924 21.0891 39.8023 21.2922 39.8023C21.7432 39.8023 22.4271 39.7528 23.1952 39.3068C25.0981 38.2017 25.4103 36.4227 25.4251 36.3483C25.4598 36.1402 25.4004 35.9222 25.2715 35.7537L24.0822 34.2522C23.8988 34.0193 23.5866 33.9152 23.2992 33.9895C23.0118 34.0639 22.7938 34.3017 22.7442 34.599C22.7393 34.609 22.5212 35.7537 21.2476 36.4921C20.8958 36.7002 20.5638 36.7844 20.1079 36.7844C19.9344 36.7844 19.761 36.7745 19.5875 36.7646C19.3893 36.7497 19.1961 36.7398 18.9978 36.7398C18.5023 36.7398 17.8481 36.8043 17.1445 37.3048C16.302 37.8994 15.9551 38.7369 15.6429 39.4802C15.3605 40.1542 15.1127 40.734 14.5478 41.1304C13.9482 41.5467 13.3188 41.5715 12.5903 41.6012C11.8718 41.6309 11.0541 41.6607 10.2216 42.1067C9.51792 42.4882 9.08679 43.1325 8.67548 43.7568C8.02135 44.748 7.56544 45.3525 6.47522 45.3525L6.32656 45.3476C6.03914 45.3327 5.75172 45.4913 5.61296 45.7589C5.47916 46.0215 5.5089 46.3436 5.69721 46.5765L6.88653 48.0781C7.02529 48.2465 7.22846 48.3506 7.44155 48.3605C7.51588 48.3655 7.59022 48.3704 7.66455 48.3704C9.62198 48.3704 10.4942 47.0572 11.1285 46.0959C11.4506 45.6053 11.7628 45.1394 12.1295 44.9412C12.6399 44.6588 13.1949 44.6389 13.8342 44.6142Z" fill="#D7598B"/>
<path d="M20.9557 50.7646V48.4306C20.9557 48.0093 20.6138 47.6724 20.1975 47.6724H17.8585C17.4423 47.6724 17.1003 48.0093 17.1003 48.4306V50.7646C17.1003 51.1858 17.4373 51.5228 17.8585 51.5228H20.1975C20.6188 51.5228 20.9557 51.1809 20.9557 50.7646Z" fill="#ED6C30"/>
<path d="M11.6742 32.5414L10.024 34.1915C9.72669 34.4889 9.72669 34.9696 10.024 35.2619L11.6742 36.9171C11.8229 37.0608 12.0161 37.1401 12.2094 37.1401C12.4076 37.1401 12.6009 37.0658 12.7446 36.9171L14.3998 35.2619C14.6971 34.9646 14.6971 34.4889 14.3998 34.1915L12.7446 32.5414C12.4473 32.244 11.9666 32.244 11.6742 32.5414Z" fill="#40C0E7"/>
<path d="M7.06535 37.2528C7.20906 37.1091 7.28835 36.9208 7.28835 36.7176C7.28835 36.5194 7.20906 36.3261 7.06535 36.1824L5.41021 34.5273C5.12774 34.2448 4.62228 34.2448 4.33981 34.5273L2.68962 36.1824C2.54591 36.3261 2.46167 36.5194 2.46167 36.7176C2.46167 36.9208 2.54591 37.1091 2.68962 37.2528L4.33981 38.903C4.40995 38.9735 4.49334 39.0295 4.58519 39.0677C4.67704 39.1059 4.77553 39.1256 4.87501 39.1256C4.97448 39.1256 5.07298 39.1059 5.16483 39.0677C5.25668 39.0295 5.34007 38.9735 5.41021 38.903L7.06535 37.2528Z" fill="#ED6C30"/>
<path d="M15.5623 53.1462C15.2798 52.8588 14.7744 52.8588 14.487 53.1462L12.8368 54.7964C12.5394 55.0938 12.5394 55.5744 12.8368 55.8718L14.487 57.522C14.5571 57.5925 14.6405 57.6485 14.7323 57.6867C14.8242 57.7249 14.9227 57.7445 15.0222 57.7445C15.1216 57.7445 15.2201 57.7249 15.312 57.6867C15.4038 57.6485 15.4872 57.5925 15.5574 57.522L17.2075 55.8718C17.5049 55.5744 17.5049 55.0938 17.2075 54.7964L15.5623 53.1462Z" fill="#40C0E7"/>
<path d="M35.9966 62.5135C35.6993 62.2162 35.2186 62.2162 34.9213 62.5135L33.3702 64.0646C33.0729 64.3619 33.0729 64.8426 33.3702 65.1399L34.9213 66.691C34.9914 66.7616 35.0748 66.8175 35.1667 66.8557C35.2585 66.8939 35.357 66.9136 35.4565 66.9136C35.556 66.9136 35.6545 66.8939 35.7463 66.8557C35.8382 66.8175 35.9215 66.7616 35.9917 66.691L37.5428 65.1399C37.8401 64.8426 37.8401 64.3619 37.5428 64.0646L35.9966 62.5135Z" fill="#40C0E7"/>
<path d="M57.0053 52.1143C57.0754 52.1848 57.1588 52.2408 57.2507 52.279C57.3425 52.3172 57.441 52.3369 57.5405 52.3369C57.6399 52.3369 57.7384 52.3172 57.8303 52.279C57.9221 52.2408 58.0055 52.1848 58.0757 52.1143L59.6317 50.5632C59.9241 50.2659 59.9241 49.7902 59.6317 49.4928L58.0757 47.9417C57.7783 47.6444 57.2976 47.6444 57.0053 47.9417L55.4542 49.4928C55.1569 49.7902 55.1569 50.2659 55.4542 50.5632L57.0053 52.1143Z" fill="#40C0E7"/>
<path d="M52.1758 62.849C51.8834 62.5516 51.3978 62.5516 51.1004 62.849L49.5494 64.4001C49.257 64.6974 49.257 65.1781 49.5494 65.4754L51.1004 67.0265C51.2491 67.1702 51.4473 67.2495 51.6406 67.2495C51.8339 67.2495 52.0271 67.1751 52.1758 67.0265L53.7269 65.4754C54.0242 65.1781 54.0242 64.6974 53.7269 64.4001L52.1758 62.849Z" fill="#40C0E7"/>
<path d="M24.0331 58.9267V56.5927C24.0331 56.1764 23.6912 55.8345 23.2749 55.8345H20.9359C20.5147 55.8345 20.1777 56.1764 20.1777 56.5927V58.9267C20.1777 59.3479 20.5147 59.6849 20.9359 59.6849H23.2749C23.6912 59.6849 24.0331 59.343 24.0331 58.9267Z" fill="#40C0E7"/>
<path d="M38.1407 55.9048H35.9455C35.5292 55.9048 35.1873 56.2418 35.1873 56.663V58.8583C35.1873 59.2745 35.5292 59.6165 35.9455 59.6165H38.1407C38.557 59.6165 38.8989 59.2745 38.8989 58.8583V56.663C38.8989 56.2418 38.562 55.9048 38.1407 55.9048Z" fill="#ED6C30"/>
<path d="M15.095 61.5859H12.756C12.3397 61.5859 11.9978 61.9279 11.9978 62.3441V64.6782C11.9978 65.0944 12.3397 65.4364 12.756 65.4364H15.095C15.5162 65.4364 15.8532 65.0944 15.8532 64.6782V62.3441C15.8532 61.9229 15.5162 61.5859 15.095 61.5859Z" fill="#ED6C30"/>
<path d="M8.33933 54.7962C8.04696 54.4989 7.56627 54.4989 7.26894 54.7962L5.61875 56.4514C5.47008 56.5951 5.39575 56.7834 5.39575 56.9866C5.39575 57.1898 5.47504 57.383 5.61875 57.5218L7.26894 59.172C7.33908 59.2425 7.42247 59.2985 7.51432 59.3367C7.60617 59.3749 7.70466 59.3945 7.80414 59.3945C7.90361 59.3945 8.00211 59.3749 8.09395 59.3367C8.1858 59.2985 8.26919 59.2425 8.33933 59.172L9.98952 57.5218C10.2869 57.2244 10.2869 56.7438 9.98952 56.4514L8.33933 54.7962Z" fill="#40C0E7"/>
<path d="M4.77599 28.06C5.72745 28.3425 6.77307 28.1294 7.59568 27.8965C8.24981 27.7132 8.8643 27.5645 9.39454 27.7231C9.91982 27.8717 10.1428 28.1691 10.5194 28.7142C10.9109 29.2791 11.3966 29.9828 12.4471 30.3941C13.022 30.6171 13.6166 30.736 14.2064 30.736C14.3848 30.736 14.5483 30.7261 14.7069 30.7112C15.0785 30.6716 15.3709 30.3594 15.3858 29.9877L15.4551 28.1443C15.4651 27.9411 15.3709 27.7379 15.2272 27.5893C15.0835 27.4406 14.8654 27.3564 14.6623 27.3564C14.2361 27.3564 13.8347 27.282 13.4382 27.1234C12.8188 26.8806 12.5463 26.4891 12.2043 25.9886C11.8079 25.4187 11.3173 24.7151 10.2618 24.4029C9.38463 24.1452 8.44308 24.3434 7.63037 24.5714C6.92669 24.7696 6.26265 24.9232 5.65312 24.7398C5.27154 24.6259 4.94943 24.4227 4.59759 24.0708C4.42911 23.9123 4.19124 23.828 3.96329 23.8627C3.73038 23.8924 3.5272 24.0312 3.40827 24.2344L2.56583 25.6715C2.4023 25.9539 2.43203 26.3058 2.65007 26.5536C3.14562 27.1185 3.76507 27.7528 4.77599 28.06Z" fill="#ED6C30"/>
<path d="M64.6386 62.6007C64.485 62.5066 64.3561 62.4967 64.2124 62.4769C62.6514 62.3133 61.2986 61.788 60.2975 60.9852C62.4879 59.9049 63.3501 57.8137 63.2362 56.5401C63.2362 56.4906 63.2312 56.4262 63.2213 56.3617C63.0578 54.5232 61.9279 53.3389 60.3421 53.3389C59.9507 53.3389 59.5344 53.4082 59.0735 53.547C58.4937 53.7204 56.8188 54.2309 55.9367 57.6403C54.8316 56.8573 53.9396 55.6184 53.3796 54.0525C53.3301 53.9088 53.2904 53.7898 53.1616 53.6659C52.8791 53.3835 52.3786 53.3835 52.0912 53.6659L50.4509 55.3112C50.1685 55.5936 50.1536 56.0396 50.4113 56.337C50.3369 56.2478 50.3072 56.1833 50.3122 56.2032C51.3925 59.2558 53.5333 61.233 56.2092 61.679C57.3044 64.0874 59.693 65.6434 62.8942 65.9804C62.9438 65.9903 62.9884 65.9903 63.0379 65.9903C63.2907 65.9903 63.5434 65.8615 63.6871 65.6286L64.8963 63.6513C65.1044 63.2846 64.9904 62.8188 64.6386 62.6007ZM59.7673 57.7889C59.4055 57.9871 59.0438 58.1507 58.7316 58.2696C58.7118 57.9326 58.7118 57.5263 58.7613 57.11C58.801 56.5996 59.4353 56.0347 59.9754 56.0347C60.1092 56.0347 60.2282 56.0694 60.3322 56.1387C60.5404 56.2725 60.6593 56.5005 60.6494 56.7384C60.6345 57.11 60.3223 57.4817 59.7673 57.7889Z" fill="#ED6C30"/>
<path d="M40.4272 7.87598L56.0809 0.918816" stroke="black" stroke-linecap="round"/>
<path d="M58.9475 17.6079L56.4593 1.4347" stroke="black" stroke-linecap="round"/>
</g>
<defs>
<clipPath id="clip0">
<rect width="68" height="68" fill="white"/>
</clipPath>
</defs>
</svg>
