<svg width="31" height="34" viewBox="0 0 31 34" fill="none" xmlns="http://www.w3.org/2000/svg">
<path d="M15.553 0C5.71132 7.735 0.78125 14.416 0.78125 20.06C0.78125 28.526 7.79783 34 15.553 34C23.3082 34 30.3247 28.526 30.3247 20.06C30.3247 14.416 25.3947 7.735 15.553 0ZM7.85322 20.4C8.53641 20.4 9.09035 20.842 9.21961 21.454C9.97666 25.228 13.4296 26.52 15.9407 26.333C16.7347 26.299 17.3995 26.877 17.3995 27.608C17.3995 28.288 16.8086 28.849 16.07 28.883C12.137 29.104 7.53932 27.03 6.48683 21.879C6.45475 21.6967 6.46604 21.5102 6.51993 21.3324C6.57383 21.1545 6.66903 20.9896 6.79897 20.8489C6.92891 20.7083 7.09048 20.5953 7.2725 20.5178C7.45453 20.4403 7.65267 20.4001 7.85322 20.4Z" fill="#342D50"/>
</svg>
