<svg width="34" height="34" viewBox="0 0 34 34" fill="none" xmlns="http://www.w3.org/2000/svg">
<path d="M7.65 10.3864C6.137 10.3864 4.913 9.1625 4.913 7.64958C4.913 6.92373 5.20136 6.2276 5.71465 5.71434C6.22794 5.20108 6.9241 4.91273 7.65 4.91273C9.163 4.91273 10.387 6.13667 10.387 7.64958C10.387 8.37544 10.0986 9.07157 9.58535 9.58483C9.07206 10.0981 8.3759 10.3864 7.65 10.3864ZM7.65 0C3.4 0 0 3.39982 0 7.64958C0 13.3783 7.65 21.8608 7.65 21.8608C7.65 21.8608 15.3 13.3783 15.3 7.64958C15.3 3.39982 11.9 0 7.65 0ZM26.35 10.3864C25.6241 10.3864 24.9279 10.0981 24.4146 9.58483C23.9014 9.07157 23.613 8.37544 23.613 7.64958C23.613 7.29018 23.6838 6.93429 23.8213 6.60224C23.9589 6.27019 24.1605 5.96848 24.4146 5.71434C24.6688 5.4602 24.9705 5.2586 25.3026 5.12106C25.6347 4.98352 25.9906 4.91273 26.35 4.91273C26.7094 4.91273 27.0653 4.98352 27.3974 5.12106C27.7295 5.2586 28.0312 5.4602 28.2854 5.71434C28.5395 5.96848 28.7411 6.27019 28.8787 6.60224C29.0162 6.93429 29.087 7.29018 29.087 7.64958C29.087 8.37544 28.7986 9.07157 28.2854 9.58483C27.7721 10.0981 27.0759 10.3864 26.35 10.3864ZM26.35 0C22.1 0 18.7 3.39982 18.7 7.64958C18.7 13.3783 26.35 21.8608 26.35 21.8608C26.35 21.8608 34 13.3783 34 7.64958C34 3.39982 30.6 0 26.35 0ZM26.35 23.7987C24.191 23.7987 22.27 25.1586 21.556 27.1985H12.444C11.9935 25.9263 11.0571 24.8844 9.83982 24.3013C8.62257 23.7182 7.2238 23.6414 5.95 24.0877C5.31689 24.3095 4.73371 24.6539 4.2338 25.1013C3.73389 25.5486 3.32705 26.0901 3.03655 26.6947C2.74605 27.2994 2.57757 27.9554 2.54076 28.6252C2.50394 29.295 2.59951 29.9655 2.822 30.5983C3.27856 31.8739 4.22134 32.917 5.44444 33.4999C6.66755 34.0827 8.07161 34.158 9.35 33.7092C10.795 33.1992 11.9 32.0433 12.444 30.5983H21.573C22.508 33.2502 25.432 34.6441 28.05 33.7092C28.685 33.4896 29.2704 33.1468 29.7725 32.7003C30.2746 32.2538 30.6836 31.7125 30.9758 31.1075C31.2681 30.5025 31.4379 29.8457 31.4755 29.1749C31.5131 28.5041 31.4178 27.8324 31.195 27.1985C30.464 25.1586 28.526 23.7987 26.35 23.7987ZM26.35 31.4483C25.6737 31.4483 25.0251 31.1796 24.5469 30.7015C24.0687 30.2233 23.8 29.5747 23.8 28.8984C23.8 28.2222 24.0687 27.5736 24.5469 27.0954C25.0251 26.6172 25.6737 26.3486 26.35 26.3486C27.0263 26.3486 27.6749 26.6172 28.1531 27.0954C28.6313 27.5736 28.9 28.2222 28.9 28.8984C28.9 29.5747 28.6313 30.2233 28.1531 30.7015C27.6749 31.1796 27.0263 31.4483 26.35 31.4483Z" fill="#342D50"/>
</svg>
