<svg width="95" height="15" viewBox="0 0 95 15" fill="none" xmlns="http://www.w3.org/2000/svg">
<path d="M7.45977 14L4.47177 8.87H2.49177V14H0.853774V1.454H4.90377C5.85177 1.454 6.64977 1.616 7.29777 1.94C7.95777 2.264 8.44977 2.702 8.77377 3.254C9.09777 3.806 9.25977 4.436 9.25977 5.144C9.25977 6.008 9.00777 6.77 8.50377 7.43C8.01177 8.09 7.26777 8.528 6.27177 8.744L9.42177 14H7.45977ZM2.49177 7.556H4.90377C5.79177 7.556 6.45777 7.34 6.90177 6.908C7.34577 6.464 7.56777 5.876 7.56777 5.144C7.56777 4.4 7.34577 3.824 6.90177 3.416C6.46977 3.008 5.80377 2.804 4.90377 2.804H2.49177V7.556ZM20.8049 8.69C20.8049 9.002 20.7869 9.332 20.7509 9.68H12.8669C12.9269 10.652 13.2569 11.414 13.8569 11.966C14.4689 12.506 15.2069 12.776 16.0709 12.776C16.7789 12.776 17.3669 12.614 17.8349 12.29C18.3149 11.954 18.6509 11.51 18.8429 10.958H20.6069C20.3429 11.906 19.8149 12.68 19.0229 13.28C18.2309 13.868 17.2469 14.162 16.0709 14.162C15.1349 14.162 14.2949 13.952 13.5509 13.532C12.8189 13.112 12.2429 12.518 11.8229 11.75C11.4029 10.97 11.1929 10.07 11.1929 9.05C11.1929 8.03 11.3969 7.136 11.8049 6.368C12.2129 5.6 12.7829 5.012 13.5149 4.604C14.2589 4.184 15.1109 3.974 16.0709 3.974C17.0069 3.974 17.8349 4.178 18.5549 4.586C19.2749 4.994 19.8269 5.558 20.2109 6.278C20.6069 6.986 20.8049 7.79 20.8049 8.69ZM19.1129 8.348C19.1129 7.724 18.9749 7.19 18.6989 6.746C18.4229 6.29 18.0449 5.948 17.5649 5.72C17.0969 5.48 16.5749 5.36 15.9989 5.36C15.1709 5.36 14.4629 5.624 13.8749 6.152C13.2989 6.68 12.9689 7.412 12.8849 8.348H19.1129ZM34.8291 3.956C35.5971 3.956 36.2811 4.118 36.8811 4.442C37.4811 4.754 37.9551 5.228 38.3031 5.864C38.6511 6.5 38.8251 7.274 38.8251 8.186V14H37.2051V8.42C37.2051 7.436 36.9591 6.686 36.4671 6.17C35.9871 5.642 35.3331 5.378 34.5051 5.378C33.6531 5.378 32.9751 5.654 32.4711 6.206C31.9671 6.746 31.7151 7.532 31.7151 8.564V14H30.0951V8.42C30.0951 7.436 29.8491 6.686 29.3571 6.17C28.8771 5.642 28.2231 5.378 27.3951 5.378C26.5431 5.378 25.8651 5.654 25.3611 6.206C24.8571 6.746 24.6051 7.532 24.6051 8.564V14H22.9671V4.136H24.6051V5.558C24.9291 5.042 25.3611 4.646 25.9011 4.37C26.4531 4.094 27.0591 3.956 27.7191 3.956C28.5471 3.956 29.2791 4.142 29.9151 4.514C30.5511 4.886 31.0251 5.432 31.3371 6.152C31.6131 5.456 32.0691 4.916 32.7051 4.532C33.3411 4.148 34.0491 3.956 34.8291 3.956ZM42.358 2.534C42.046 2.534 41.782 2.426 41.566 2.21C41.35 1.994 41.242 1.73 41.242 1.418C41.242 1.106 41.35 0.842 41.566 0.625999C41.782 0.409999 42.046 0.301999 42.358 0.301999C42.658 0.301999 42.91 0.409999 43.114 0.625999C43.33 0.842 43.438 1.106 43.438 1.418C43.438 1.73 43.33 1.994 43.114 2.21C42.91 2.426 42.658 2.534 42.358 2.534ZM43.15 4.136V14H41.512V4.136H43.15ZM50.7477 3.956C51.9477 3.956 52.9197 4.322 53.6637 5.054C54.4077 5.774 54.7797 6.818 54.7797 8.186V14H53.1597V8.42C53.1597 7.436 52.9137 6.686 52.4217 6.17C51.9297 5.642 51.2577 5.378 50.4057 5.378C49.5417 5.378 48.8517 5.648 48.3357 6.188C47.8317 6.728 47.5797 7.514 47.5797 8.546V14H45.9417V4.136H47.5797V5.54C47.9037 5.036 48.3417 4.646 48.8937 4.37C49.4577 4.094 50.0757 3.956 50.7477 3.956ZM56.8433 9.032C56.8433 8.024 57.0473 7.142 57.4553 6.386C57.8633 5.618 58.4213 5.024 59.1293 4.604C59.8493 4.184 60.6533 3.974 61.5413 3.974C62.3093 3.974 63.0233 4.154 63.6833 4.514C64.3433 4.862 64.8473 5.324 65.1953 5.9V0.68H66.8513V14H65.1953V12.146C64.8713 12.734 64.3913 13.22 63.7553 13.604C63.1193 13.976 62.3753 14.162 61.5233 14.162C60.6473 14.162 59.8493 13.946 59.1293 13.514C58.4213 13.082 57.8633 12.476 57.4553 11.696C57.0473 10.916 56.8433 10.028 56.8433 9.032ZM65.1953 9.05C65.1953 8.306 65.0453 7.658 64.7453 7.106C64.4453 6.554 64.0373 6.134 63.5213 5.846C63.0173 5.546 62.4593 5.396 61.8473 5.396C61.2353 5.396 60.6773 5.54 60.1733 5.828C59.6693 6.116 59.2673 6.536 58.9673 7.088C58.6673 7.64 58.5173 8.288 58.5173 9.032C58.5173 9.788 58.6673 10.448 58.9673 11.012C59.2673 11.564 59.6693 11.99 60.1733 12.29C60.6773 12.578 61.2353 12.722 61.8473 12.722C62.4593 12.722 63.0173 12.578 63.5213 12.29C64.0373 11.99 64.4453 11.564 64.7453 11.012C65.0453 10.448 65.1953 9.794 65.1953 9.05Z" fill="black"/>
<path d="M83.1734 1.436V14H80.6534V5.828L77.2874 14H75.3794L71.9954 5.828V14H69.4754V1.436H72.3374L76.3334 10.778L80.3294 1.436H83.1734ZM94.9349 8.798C94.9349 9.158 94.9109 9.482 94.8629 9.77H87.5729C87.6329 10.49 87.8849 11.054 88.3289 11.462C88.7729 11.87 89.3189 12.074 89.9669 12.074C90.9029 12.074 91.5689 11.672 91.9649 10.868H94.6829C94.3949 11.828 93.8429 12.62 93.0269 13.244C92.2109 13.856 91.2089 14.162 90.0209 14.162C89.0609 14.162 88.1969 13.952 87.4289 13.532C86.6729 13.1 86.0789 12.494 85.6469 11.714C85.2269 10.934 85.0169 10.034 85.0169 9.014C85.0169 7.982 85.2269 7.076 85.6469 6.296C86.0669 5.516 86.6549 4.916 87.4109 4.496C88.1669 4.076 89.0369 3.866 90.0209 3.866C90.9689 3.866 91.8149 4.07 92.5589 4.478C93.3149 4.886 93.8969 5.468 94.3049 6.224C94.7249 6.968 94.9349 7.826 94.9349 8.798ZM92.3249 8.078C92.3129 7.43 92.0789 6.914 91.6229 6.53C91.1669 6.134 90.6089 5.936 89.9489 5.936C89.3249 5.936 88.7969 6.128 88.3649 6.512C87.9449 6.884 87.6869 7.406 87.5909 8.078H92.3249Z" fill="#625BAD"/>
</svg>
