<svg width="63" height="63" viewBox="0 0 63 63" fill="none" xmlns="http://www.w3.org/2000/svg">
<path d="M62.5 31.25C62.5 39.538 59.2076 47.4866 53.3471 53.3471C47.4866 59.2076 39.538 62.5 31.25 62.5C22.962 62.5 15.0134 59.2076 9.15291 53.3471C3.2924 47.4866 0 39.538 0 31.25C0 22.962 3.2924 15.0134 9.15291 9.15291C15.0134 3.2924 22.962 0 31.25 0C39.538 0 47.4866 3.2924 53.3471 9.15291C59.2076 15.0134 62.5 22.962 62.5 31.25ZM46.9922 19.4141C46.7132 19.136 46.3809 18.9171 46.0154 18.7704C45.6498 18.6237 45.2584 18.5522 44.8645 18.5602C44.4707 18.5682 44.0825 18.6556 43.7232 18.8171C43.3639 18.9785 43.0409 19.2108 42.7734 19.5L29.207 36.7852L21.0312 28.6055C20.4759 28.088 19.7413 27.8062 18.9823 27.8196C18.2233 27.833 17.4992 28.1405 16.9624 28.6773C16.4256 29.214 16.1182 29.9382 16.1048 30.6972C16.0914 31.4562 16.3731 32.1907 16.8906 32.7461L27.2266 43.0859C27.505 43.3639 27.8366 43.5829 28.2015 43.7299C28.5664 43.8769 28.9572 43.9489 29.3506 43.9416C29.7439 43.9343 30.1318 43.8479 30.491 43.6875C30.8502 43.527 31.1735 43.2959 31.4414 43.0078L47.0352 23.5156C47.5668 22.9629 47.8605 22.2237 47.8531 21.4569C47.8458 20.69 47.5381 19.9566 46.9961 19.4141H46.9922Z" fill="#B6C6E5"/>
</svg>
